<svg width="126" height="126" viewBox="0 0 126 126" fill="none" xmlns="http://www.w3.org/2000/svg">
<path opacity="0.35" d="M100.8 32.55H25.2002V115.5H100.8V32.55Z" fill="black"/>
<path d="M89.25 43.05H36.75V11.55H89.25V43.05ZM45.15 34.65H80.85V19.95H45.15V34.65Z" fill="#9500BA"/>
<path d="M100.8 28.35H25.2002V111.3H100.8V28.35Z" fill="#B730E1"/>
<path opacity="0.35" d="M105 28.35H21V40.95H105V28.35Z" fill="black"/>
<path d="M105 26.25H21V36.75H105V26.25Z" fill="#D663FF"/>
<path opacity="0.35" d="M85.05 48.3H78.75V102.9H85.05V48.3Z" fill="black"/>
<path opacity="0.35" d="M47.2502 48.3H40.9502V102.9H47.2502V48.3Z" fill="black"/>
<path opacity="0.35" d="M66.1501 48.3H59.8501V102.9H66.1501V48.3Z" fill="black"/>
<path d="M85.05 47.25H78.75V98.7H85.05V47.25Z" fill="#9500BA"/>
<path d="M47.2502 47.25H40.9502V98.7H47.2502V47.25Z" fill="#9500BA"/>
<path d="M66.1501 47.25H59.8501V98.7H66.1501V47.25Z" fill="#9500BA"/>
</svg>
