<svg width="15" height="15" viewBox="0 0 15 15" fill="none" xmlns="http://www.w3.org/2000/svg">
<path d="M7.28025 10.2802C7.134 10.4265 6.942 10.5 6.75 10.5C6.558 10.5 6.366 10.4265 6.21975 10.2802L3.21975 7.28025C2.9265 6.987 2.9265 6.513 3.21975 6.21975C3.513 5.9265 3.987 5.9265 4.28025 6.21975L6.75 8.6895L13.0125 2.427C11.6423 0.93825 9.68325 0 7.5 0C3.35775 0 0 3.35775 0 7.5C0 11.6423 3.35775 15 7.5 15C11.6423 15 15 11.6423 15 7.5C15 6.08625 14.6018 4.7685 13.9215 3.639L7.28025 10.2802Z" fill="black"/>
</svg>
