<svg width="28" height="29" viewBox="0 0 28 29" fill="none" xmlns="http://www.w3.org/2000/svg">
<path d="M4.375 27.1875C2.93262 27.1875 1.75 25.9626 1.75 24.4688V9.96875C1.75 8.47485 2.93262 7.25 4.375 7.25H7V6.34375C7 4.84985 8.18262 3.625 9.625 3.625H23.625C25.0674 3.625 26.25 4.84985 26.25 6.34375V20.8438C26.25 22.3376 25.0674 23.5625 23.625 23.5625H21V24.4688C21 25.9626 19.8174 27.1875 18.375 27.1875H4.375ZM4.375 25.375H18.375C18.8672 25.375 19.25 24.9785 19.25 24.4688V9.96875C19.25 9.45898 18.8672 9.0625 18.375 9.0625H4.375C3.88281 9.0625 3.5 9.45898 3.5 9.96875V24.4688C3.5 24.9785 3.88281 25.375 4.375 25.375ZM21 21.75H23.625C24.1172 21.75 24.5 21.3535 24.5 20.8438V6.34375C24.5 5.83398 24.1172 5.4375 23.625 5.4375H9.625C9.13281 5.4375 8.75 5.83398 8.75 6.34375V7.25H18.375C19.8174 7.25 21 8.47485 21 9.96875V21.75Z" fill="#606060"/>
</svg>
