<svg width="56" height="48" viewBox="0 0 56 48" fill="none" xmlns="http://www.w3.org/2000/svg">
<path d="M28 0C27.6634 4.28555e-05 27.3301 0.0663525 27.0195 0.19509C26.7088 0.323828 26.427 0.512437 26.1903 0.75L0.517045 22.9836C0.356705 23.101 0.226385 23.2541 0.13658 23.4307C0.0467744 23.6072 -7.65595e-06 23.8022 9.3976e-10 24C9.39761e-10 24.335 0.13409 24.6563 0.372773 24.8932C0.611456 25.1301 0.935179 25.2632 1.27273 25.2632H7.63636V45.4737C7.63636 46.8682 8.77673 48 10.1818 48H20.3636C21.7687 48 22.9091 46.8682 22.9091 45.4737V30.3158H33.0909V45.4737C33.0909 46.8682 34.2313 48 35.6364 48H45.8182C47.2233 48 48.3636 46.8682 48.3636 45.4737V25.2632H54.7273C55.0648 25.2632 55.3885 25.1301 55.6272 24.8932C55.8659 24.6563 56 24.335 56 24C56 23.8022 55.9532 23.6072 55.8634 23.4307C55.7736 23.2541 55.6433 23.101 55.483 22.9836L29.8246 0.764803C29.8196 0.759848 29.8147 0.754914 29.8097 0.75C29.573 0.512437 29.2912 0.323828 28.9805 0.19509C28.6699 0.0663525 28.3366 4.28555e-05 28 0Z" fill="white"/>
</svg>
