<svg width="28" height="35" viewBox="0 0 28 35" fill="none" xmlns="http://www.w3.org/2000/svg">
<mask id="path-1-inside-1_103_276" fill="white">
<path d="M23.8158 4.18408H4.18359V9.01167H23.8158V4.18408Z"/>
</mask>
<path d="M23.8158 4.18408H4.18359V9.01167H23.8158V4.18408Z" fill="white"/>
<path d="M4.18359 4.18408V-151.816H-151.816V4.18408H4.18359ZM23.8158 4.18408H179.816V-151.816H23.8158V4.18408ZM23.8158 9.01167V165.012H179.816V9.01167H23.8158ZM4.18359 9.01167H-151.816V165.012H4.18359V9.01167ZM4.18359 160.184H23.8158V-151.816H4.18359V160.184ZM-132.184 4.18408V9.01167H179.816V4.18408H-132.184ZM23.8158 -146.988H4.18359V165.012H23.8158V-146.988ZM160.184 9.01167V4.18408H-151.816V9.01167H160.184Z" fill="white" mask="url(#path-1-inside-1_103_276)"/>
<path d="M5.47138 13.5171C4.92425 13.5171 4.50586 13.9355 4.50586 14.4826C4.50586 15.0297 4.92425 15.4481 5.47138 15.4481H21.8852C22.4323 15.4481 22.8507 15.0297 22.8507 14.4826C22.8507 13.9355 22.4323 13.5171 21.8852 13.5171H5.47138Z" fill="white" stroke="white" stroke-width="156"/>
<path d="M5.47138 18.3447C4.92425 18.3447 4.50586 18.7631 4.50586 19.3102C4.50586 19.8574 4.92425 20.2758 5.47138 20.2758H21.8852C22.4323 20.2758 22.8507 19.8574 22.8507 19.3102C22.8507 18.7631 22.4323 18.3447 21.8852 18.3447H5.47138Z" fill="white" stroke="white" stroke-width="156"/>
<path d="M5.47138 23.1724C4.92425 23.1724 4.50586 23.5908 4.50586 24.1379C4.50586 24.685 4.92425 25.1034 5.47138 25.1034H14.0001C14.5472 25.1034 14.9656 24.685 14.9656 24.1379C14.9656 23.5908 14.5472 23.1724 14.0001 23.1724H5.47138Z" fill="white" stroke="white" stroke-width="156"/>
<path d="M23.8161 34.1149C26.1333 34.1149 28 32.2483 28 29.931V4.18391C28 1.86667 26.1333 0 23.8161 0H4.18391C1.86667 0 0 1.86667 0 4.18391V29.931C0 32.2483 1.86667 34.1149 4.18391 34.1149H23.8161ZM1.93103 4.18391C1.93103 2.92874 2.92874 1.93103 4.18391 1.93103H23.8161C25.0713 1.93103 26.069 2.92874 26.069 4.18391V29.931C26.069 31.1862 25.0713 32.1839 23.8161 32.1839H4.18391C2.92874 32.1839 1.93103 31.1862 1.93103 29.931V4.18391Z" fill="white" stroke="white" stroke-width="114"/>
</svg>
