<svg width="23" height="23" viewBox="0 0 23 23" fill="none" xmlns="http://www.w3.org/2000/svg">
<path d="M8.62497 1.03809C4.4439 1.03809 1.03809 4.4439 1.03809 8.62497C1.03809 12.806 4.4439 16.2119 8.62497 16.2119C10.435 16.2119 12.0982 15.5722 13.4042 14.509L18.7345 21.1862C18.7345 21.1862 19.902 21.3598 20.6268 20.6044C21.3567 19.8432 21.1855 18.7359 21.1855 18.7359L14.509 13.4042C15.5722 12.0982 16.2119 10.435 16.2119 8.62497C16.2119 4.4439 12.806 1.03809 8.62497 1.03809ZM8.62497 2.5556C11.986 2.5556 14.6943 5.2639 14.6943 8.62497C14.6943 11.986 11.986 14.6943 8.62497 14.6943C5.2639 14.6943 2.5556 11.986 2.5556 8.62497C2.5556 5.2639 5.2639 2.5556 8.62497 2.5556Z" fill="#530DF6"/>
</svg>
